<svg width="241" height="49" viewBox="0 0 241 49" fill="none" xmlns="http://www.w3.org/2000/svg">
<path d="M0.605469 12.0636C0.740097 12.0454 0.874725 12.009 1.00935 12.009C9.26168 12.0054 17.5177 12.0054 25.77 12.0054C25.8937 12.0054 26.0174 12.0054 26.1666 12.0054C26.1666 13.7301 26.1666 15.422 26.1666 17.1503C19.3624 17.1503 12.5728 17.1503 5.76135 17.1503C5.76135 18.8678 5.76135 20.5451 5.76135 22.2626C12.5692 22.2626 19.3588 22.2626 26.1702 22.2626C26.1702 27.3748 26.1702 32.4506 26.1702 37.5701C26.0574 37.5774 25.9373 37.592 25.8173 37.592C17.5395 37.592 9.26532 37.592 0.987522 37.592C0.860171 37.592 0.736462 37.5701 0.609111 37.5592C0.609111 35.8745 0.609111 34.1862 0.609111 32.5016C0.76557 32.4834 0.92567 32.447 1.08213 32.447C7.59885 32.4433 14.1119 32.4433 20.6286 32.4433C20.7742 32.4433 20.9234 32.4433 21.0762 32.4433C21.0762 30.7223 21.0762 29.0485 21.0762 27.342C20.887 27.342 20.7269 27.342 20.5668 27.342C14.0865 27.342 7.60612 27.342 1.12215 27.342C0.951134 27.342 0.780121 27.3202 0.605469 27.3093C0.605469 22.2262 0.605469 17.1467 0.605469 12.0636Z" fill="white" fill-opacity="0.4"/>
<path d="M130.307 48.5039C130.307 46.0806 130.307 43.661 130.307 41.2158C130.798 41.2158 131.267 41.2158 131.766 41.2158C131.766 43.1297 131.766 45.0327 131.766 46.9612C132.261 46.9612 132.723 46.9612 133.218 46.9612C133.218 45.0582 133.218 43.1588 133.218 41.2267C133.712 41.2267 134.175 41.2267 134.684 41.2267C134.684 43.137 134.684 45.0436 134.684 46.9721C135.182 46.9721 135.637 46.9721 136.128 46.9721C136.128 45.0509 136.128 43.1406 136.128 41.2158C136.634 41.2158 137.1 41.2158 137.588 41.2158C137.588 43.661 137.588 46.0806 137.588 48.5039C135.164 48.5039 132.734 48.5039 130.307 48.5039Z" fill="white" fill-opacity="0.4"/>
<path d="M118.128 12.0234C126.639 12.0234 135.117 12.0234 143.627 12.0234C143.627 13.7154 143.627 15.4037 143.627 17.1466C136.838 17.1466 130.041 17.1466 123.218 17.1466C123.218 18.8676 123.218 20.5378 123.218 22.2406C130.012 22.2406 136.805 22.2406 143.627 22.2406C143.627 23.9435 143.627 25.6099 143.627 27.3274C136.838 27.3274 130.041 27.3274 123.218 27.3274C123.218 29.0484 123.218 30.7185 123.218 32.4214C130.012 32.4214 136.805 32.4214 143.627 32.4214C143.627 34.1461 143.627 35.8344 143.627 37.5554C135.138 37.5554 126.642 37.5554 118.128 37.5554C118.128 29.0557 118.128 20.5632 118.128 12.0234Z" fill="white" fill-opacity="0.4"/>
<path d="M147.518 12.0234C156.017 12.0234 164.495 12.0234 173.006 12.0234C173.006 13.7154 173.006 15.4037 173.006 17.1393C166.216 17.1393 159.419 17.1393 152.597 17.1393C152.597 18.8604 152.597 20.5414 152.597 22.2479C159.394 22.2479 166.187 22.2479 173.006 22.2479C173.006 27.371 173.006 32.4651 173.006 37.5736C164.513 37.5736 156.021 37.5736 147.521 37.5736C147.521 35.8635 147.521 34.1716 147.521 32.4469C154.322 32.4469 161.1 32.4469 167.908 32.4469C167.908 30.7404 167.908 29.063 167.908 27.3419C161.108 27.3419 154.318 27.3419 147.521 27.3419C147.518 22.2151 147.518 17.1284 147.518 12.0234Z" fill="white" fill-opacity="0.4"/>
<path d="M84.9153 12.0273C84.9153 20.5417 84.9153 29.0341 84.9153 37.5593C83.227 37.5593 81.5387 37.5593 79.8176 37.5593C79.8176 34.1536 79.8176 30.7661 79.8176 27.3604C74.6945 27.3604 69.6041 27.3604 64.4773 27.3604C64.4773 30.7697 64.4773 34.1573 64.4773 37.5703C62.7636 37.5703 61.0825 37.5703 59.3797 37.5703C59.3797 29.0523 59.3797 20.5526 59.3797 12.0273C67.894 12.0273 76.3828 12.0273 84.9153 12.0273ZM64.4882 22.2372C69.615 22.2372 74.7054 22.2372 79.7994 22.2372C79.7994 20.538 79.7994 18.857 79.7994 17.1832C74.6836 17.1832 69.5932 17.1832 64.4882 17.1832C64.4882 18.8788 64.4882 20.5453 64.4882 22.2372Z" fill="white" fill-opacity="0.4"/>
<path d="M240.669 27.3967C233.879 27.3967 227.075 27.3967 220.245 27.3967C220.245 30.7952 220.245 34.1645 220.245 37.563C218.514 37.563 216.814 37.563 215.097 37.563C215.097 29.0705 215.097 20.5926 215.097 12.0601C223.615 12.0601 232.111 12.0601 240.673 12.0601C240.669 17.1323 240.669 22.2336 240.669 27.3967ZM220.256 17.1796C220.256 18.8788 220.256 20.5525 220.256 22.2372C225.358 22.2372 230.434 22.2372 235.509 22.2372C235.509 20.5344 235.509 18.857 235.509 17.1796C230.415 17.1796 225.347 17.1796 220.256 17.1796Z" fill="white" fill-opacity="0.4"/>
<path d="M55.5588 27.3859C48.7583 27.3859 41.9541 27.3859 35.1099 27.3859C35.1099 30.7843 35.1099 34.1609 35.1099 37.5666C33.3779 37.5666 31.6896 37.5666 29.9795 37.5666C29.9795 29.0814 29.9795 20.6035 29.9795 12.0674C38.4974 12.0674 47.0045 12.0674 55.5588 12.0674C55.5588 17.1432 55.5588 22.2373 55.5588 27.3859ZM50.392 17.1832C45.2834 17.1832 40.2039 17.1832 35.1172 17.1832C35.1172 18.8861 35.1172 20.5635 35.1172 22.2409C40.2221 22.2409 45.3016 22.2409 50.392 22.2409C50.392 20.549 50.392 18.8788 50.392 17.1832Z" fill="white" fill-opacity="0.4"/>
<path d="M93.8549 17.1539C93.8549 22.2697 93.8549 27.331 93.8549 32.4287C100.655 32.4287 107.445 32.4287 114.26 32.4287C114.26 34.157 114.26 35.8453 114.26 37.5628C105.779 37.5628 97.2897 37.5628 88.7754 37.5628C88.7754 29.0594 88.7754 20.5596 88.7754 12.0308C97.257 12.0308 105.746 12.0308 114.26 12.0308C114.26 13.7191 114.26 15.4074 114.26 17.1503C107.467 17.1539 100.67 17.1539 93.8549 17.1539Z" fill="white" fill-opacity="0.4"/>
<path d="M176.866 12.0234C178.554 12.0234 180.228 12.0234 181.931 12.0234C181.931 15.4219 181.931 18.813 181.931 22.2297C187.065 22.2297 192.166 22.2297 197.297 22.2297C197.297 18.8385 197.297 15.4474 197.297 12.0307C198.992 12.0307 200.663 12.0307 202.358 12.0307C202.358 20.5341 202.358 29.0339 202.358 37.5627C200.692 37.5627 199.022 37.5627 197.322 37.5627C197.322 34.1716 197.322 30.784 197.322 27.3674C192.192 27.3674 187.094 27.3674 181.957 27.3674C181.957 30.7658 181.957 34.1534 181.957 37.5664C180.235 37.5664 178.558 37.5664 176.87 37.5664C176.866 29.0484 176.866 20.545 176.866 12.0234Z" fill="white" fill-opacity="0.4"/>
<path d="M211.448 48.3843C209.672 48.3843 207.944 48.3843 206.197 48.3843C206.197 36.2642 206.197 24.1622 206.197 12.0202C206.314 12.0129 206.426 12.002 206.536 12.002C208.038 12.002 209.541 12.0093 211.044 11.9947C211.353 11.9911 211.459 12.0712 211.459 12.4023C211.451 24.2786 211.451 36.1587 211.451 48.035C211.448 48.1369 211.448 48.2388 211.448 48.3843Z" fill="white" fill-opacity="0.4"/>
<path d="M204.367 4.20793C204.109 1.48626 206.597 -0.162019 208.864 0.0126335C210.92 0.169093 212.899 1.73733 212.659 4.18974C213.136 4.2989 213.624 4.37531 214.093 4.52085C214.664 4.69915 215.221 4.9211 215.774 5.14669C215.952 5.21947 216.112 5.34317 216.262 5.47052C216.851 5.96537 216.844 6.52572 216.24 7.00238C215.639 7.4754 214.926 7.71554 214.198 7.90474C213.554 8.07212 212.896 8.19583 212.234 8.34138C212.212 8.61791 212.274 8.80711 212.59 8.90171C212.907 8.99632 213.172 9.21828 213.187 9.58941C213.201 9.94236 212.969 10.1643 212.685 10.3171C212.044 10.6555 211.382 10.6883 210.716 10.3972C210.443 10.2771 210.225 10.0879 210.207 9.7568C210.189 9.42568 210.371 9.1928 210.636 9.06181C210.931 8.91991 210.96 8.74526 210.829 8.52331C209.315 8.52331 207.816 8.52331 206.303 8.52331C206.215 8.75982 206.263 8.93447 206.561 9.05091C206.859 9.17098 207.092 9.38929 207.092 9.74951C207.092 10.1134 206.852 10.3208 206.561 10.4554C205.895 10.7647 205.215 10.772 204.563 10.4081C203.938 10.0588 203.93 9.41477 204.574 9.09821C204.938 8.91992 204.986 8.69433 204.902 8.34866C204.316 8.22495 203.708 8.13761 203.126 7.97023C202.497 7.7883 201.878 7.56272 201.281 7.2971C200.827 7.09334 200.368 6.80589 200.368 6.22736C200.368 5.64882 200.845 5.38684 201.281 5.15034C202.235 4.63002 203.29 4.41533 204.367 4.20793Z" fill="white" fill-opacity="0.4"/>
<path d="M156.094 41.1904C156.094 43.6174 156.094 46.0152 156.094 48.4276C153.678 48.4276 151.28 48.4276 148.853 48.4276C148.853 47.9619 148.853 47.4961 148.853 46.994C149.057 46.994 149.271 46.994 149.508 46.994C149.508 45.5349 149.508 44.1122 149.508 42.6677C149.282 42.6568 149.068 42.6422 148.846 42.6313C148.846 42.1401 148.846 41.6744 148.846 41.1904C151.265 41.1904 153.663 41.1904 156.094 41.1904ZM154.62 45.5567C153.405 45.5567 152.23 45.5567 151.033 45.5567C151.033 46.0334 151.033 46.4882 151.033 46.9613C152.233 46.9613 153.416 46.9613 154.62 46.9613C154.62 46.4919 154.62 46.037 154.62 45.5567ZM154.624 42.6859C153.416 42.6859 152.226 42.6859 151.04 42.6859C151.04 43.1626 151.04 43.6065 151.04 44.0576C152.248 44.0576 153.43 44.0576 154.624 44.0576C154.624 43.5883 154.624 43.1444 154.624 42.6859Z" fill="white" fill-opacity="0.4"/>
<path d="M165.346 41.1904C165.346 41.6744 165.346 42.1401 165.346 42.6459C163.421 42.6459 161.507 42.6459 159.568 42.6459C159.568 43.1371 159.568 43.5919 159.568 44.0795C161.496 44.0795 163.407 44.0795 165.342 44.0795C165.342 45.5385 165.342 46.9649 165.342 48.4203C162.934 48.4203 160.529 48.4203 158.102 48.4203C158.102 47.9437 158.102 47.4779 158.102 46.9794C160.034 46.9794 161.948 46.9794 163.887 46.9794C163.887 46.4955 163.887 46.0407 163.887 45.5495C161.958 45.5495 160.045 45.5495 158.109 45.5495C158.109 44.0795 158.109 42.6422 158.109 41.1904C160.529 41.1904 162.926 41.1904 165.346 41.1904Z" fill="white" fill-opacity="0.4"/>
<path d="M146.815 46.9613C146.815 47.4816 146.815 47.9401 146.815 48.4204C144.403 48.4204 142.008 48.4204 139.589 48.4204C139.589 46.0153 139.589 43.6211 139.589 41.1978C141.994 41.1978 144.388 41.1978 146.808 41.1978C146.808 41.6744 146.808 42.1402 146.808 42.6423C144.894 42.6423 142.991 42.6423 141.059 42.6423C141.059 43.1299 141.059 43.581 141.059 44.0686C142.962 44.0686 144.865 44.0686 146.8 44.0686C146.8 44.5635 146.8 45.0292 146.8 45.535C144.89 45.535 142.98 45.535 141.048 45.535C141.048 46.0262 141.048 46.4737 141.048 46.9613C142.954 46.9613 144.865 46.9613 146.815 46.9613Z" fill="white" fill-opacity="0.4"/>
<path d="M239.548 46.9906C239.548 46.4885 239.548 46.041 239.548 45.5497C237.616 45.5497 235.695 45.5497 233.756 45.5497C233.756 44.0761 233.756 42.6498 233.756 41.1943C236.161 41.1943 238.566 41.1943 240.997 41.1943C240.997 41.6601 240.997 42.1258 240.997 42.6243C239.072 42.6243 237.158 42.6243 235.219 42.6243C235.219 43.1119 235.219 43.5667 235.219 44.0652C237.136 44.0652 239.057 44.0652 241 44.0652C241 45.5352 241 46.9615 241 48.4206C238.599 48.4206 236.19 48.4206 233.759 48.4206C233.759 47.9549 233.759 47.4891 233.759 46.9943C235.684 46.9906 237.595 46.9906 239.548 46.9906Z" fill="white" fill-opacity="0.4"/>
<path d="M222.483 41.187C222.483 43.603 222.483 45.9972 222.483 48.4205C220.067 48.4205 217.658 48.4205 215.228 48.4205C215.228 46.0227 215.228 43.6176 215.228 41.187C217.629 41.187 220.038 41.187 222.483 41.187ZM221.017 42.6861C219.561 42.6861 218.138 42.6861 216.719 42.6861C216.719 44.1306 216.719 45.5424 216.719 46.9542C218.171 46.9542 219.594 46.9542 221.017 46.9542C221.017 45.5206 221.017 44.1124 221.017 42.6861Z" fill="white" fill-opacity="0.4"/>
<path d="M174.621 41.2017C174.621 43.6177 174.621 46.0119 174.621 48.4279C172.198 48.4279 169.789 48.4279 167.362 48.4279C167.362 46.0192 167.362 43.625 167.362 41.2017C169.771 41.2017 172.176 41.2017 174.621 41.2017ZM168.832 46.9543C170.284 46.9543 171.721 46.9543 173.148 46.9543C173.148 45.517 173.148 44.1016 173.148 42.7008C171.696 42.7008 170.266 42.7008 168.832 42.7008C168.832 44.1344 168.832 45.5389 168.832 46.9543Z" fill="white" fill-opacity="0.4"/>
<path d="M231.751 41.1831C231.751 43.5955 231.751 45.9897 231.751 48.4166C231.281 48.4166 230.816 48.4166 230.299 48.4166C230.299 46.5064 230.299 44.5888 230.299 42.6494C228.833 42.6494 227.417 42.6494 225.954 42.6494C225.954 44.5706 225.954 46.4882 225.954 48.4275C225.452 48.4275 224.994 48.4275 224.514 48.4275C224.514 46.0151 224.514 43.61 224.514 41.1831C226.919 41.1831 229.327 41.1831 231.751 41.1831Z" fill="white" fill-opacity="0.4"/>
<path d="M193.127 48.4276C190.704 48.4276 188.31 48.4276 185.894 48.4276C185.894 46.0116 185.894 43.6174 185.894 41.1978C186.363 41.1978 186.818 41.1978 187.323 41.1978C187.323 43.1117 187.323 45.0292 187.323 46.9649C188.801 46.9649 190.227 46.9649 191.683 46.9649C191.683 45.0438 191.683 43.1335 191.683 41.1978C192.177 41.1978 192.643 41.1978 193.127 41.1978C193.127 43.6065 193.127 46.0007 193.127 48.4276Z" fill="white" fill-opacity="0.4"/>
<path d="M202.409 42.635C201.434 42.635 200.492 42.635 199.502 42.635C199.502 44.5816 199.502 46.5028 199.502 48.4313C198.996 48.4313 198.538 48.4313 198.043 48.4313C198.043 46.5028 198.043 44.5926 198.043 42.6386C197.068 42.6386 196.129 42.6386 195.172 42.6386C195.172 42.1402 195.172 41.6817 195.172 41.1978C197.581 41.1978 199.986 41.1978 202.413 41.1978C202.409 41.6671 202.409 42.122 202.409 42.635Z" fill="white" fill-opacity="0.4"/>
<path d="M183.866 46.9725C183.866 47.4746 183.866 47.9403 183.866 48.4279C181.458 48.4279 179.06 48.4279 176.647 48.4279C176.647 46.0155 176.647 43.6213 176.647 41.2017C177.113 41.2017 177.579 41.2017 178.077 41.2017C178.077 43.1228 178.077 45.0295 178.077 46.9725C180.024 46.9725 181.934 46.9725 183.866 46.9725Z" fill="white" fill-opacity="0.4"/>
<path d="M213.958 2.72363C214.038 2.82551 214.154 2.91648 214.19 3.02927C214.256 3.23303 214.096 3.2767 213.932 3.29125C213.703 3.31308 213.474 3.33128 213.244 3.36039C213.052 3.38586 212.935 3.30581 212.971 3.12024C212.99 3.022 213.099 2.88737 213.193 2.8619C213.415 2.80732 213.648 2.80733 213.878 2.78549C213.903 2.7673 213.932 2.74546 213.958 2.72363Z" fill="white" fill-opacity="0.4"/>
<path d="M212.929 2.26869C212.849 2.16317 212.761 2.08677 212.729 1.98853C212.707 1.92303 212.739 1.79204 212.794 1.75929C213.045 1.60283 213.307 1.45728 213.576 1.33357C213.635 1.3081 213.773 1.34812 213.802 1.39906C213.856 1.48639 213.9 1.6756 213.867 1.70107C213.576 1.89756 213.267 2.06857 212.929 2.26869Z" fill="white" fill-opacity="0.4"/>
<path d="M213.074 0.573041C212.801 0.824104 212.55 1.06425 212.285 1.27893C212.248 1.30804 212.085 1.24982 212.052 1.19161C212.008 1.11883 211.997 0.969653 212.044 0.907797C212.205 0.700397 212.387 0.503911 212.583 0.32562C212.641 0.271041 212.783 0.271038 212.87 0.300147C212.94 0.329256 212.976 0.434775 213.074 0.573041Z" fill="white" fill-opacity="0.4"/>
</svg>
